<svg width="114" height="54" viewBox="0 0 114 54" fill="none" xmlns="http://www.w3.org/2000/svg">
<g filter="url(#filter0_d_160_8)">
<path d="M30 24.9688H10.2812V41.0938H33.1875V46H4.28125V0.5H32.875V5.4375H10.2812V20.0625H30V24.9688ZM55.5 17.9375L66.4062 0.5H73.4688L59.0938 23.0625L73.8125 46H66.6875L55.5 28.25L44.25 46H37.1562L51.9062 23.0625L37.5 0.5H44.5312L55.5 17.9375ZM106.5 24.9688H86.7812V41.0938H109.688V46H80.7812V0.5H109.375V5.4375H86.7812V20.0625H106.5V24.9688Z" fill="white"/>
<path d="M30 24.9688V25.9688H31V24.9688H30ZM10.2812 24.9688V23.9688H9.28125V24.9688H10.2812ZM10.2812 41.0938H9.28125V42.0938H10.2812V41.0938ZM33.1875 41.0938H34.1875V40.0938H33.1875V41.0938ZM33.1875 46V47H34.1875V46H33.1875ZM4.28125 46H3.28125V47H4.28125V46ZM4.28125 0.5V-0.5H3.28125V0.5H4.28125ZM32.875 0.5H33.875V-0.5H32.875V0.5ZM32.875 5.4375V6.4375H33.875V5.4375H32.875ZM10.2812 5.4375V4.4375H9.28125V5.4375H10.2812ZM10.2812 20.0625H9.28125V21.0625H10.2812V20.0625ZM30 20.0625H31V19.0625H30V20.0625ZM30 23.9688H10.2812V25.9688H30V23.9688ZM9.28125 24.9688V41.0938H11.2812V24.9688H9.28125ZM10.2812 42.0938H33.1875V40.0938H10.2812V42.0938ZM32.1875 41.0938V46H34.1875V41.0938H32.1875ZM33.1875 45H4.28125V47H33.1875V45ZM5.28125 46V0.5H3.28125V46H5.28125ZM4.28125 1.5H32.875V-0.5H4.28125V1.5ZM31.875 0.5V5.4375H33.875V0.5H31.875ZM32.875 4.4375H10.2812V6.4375H32.875V4.4375ZM9.28125 5.4375V20.0625H11.2812V5.4375H9.28125ZM10.2812 21.0625H30V19.0625H10.2812V21.0625ZM29 20.0625V24.9688H31V20.0625H29ZM55.5 17.9375L54.6535 18.47L55.5024 19.8195L56.3478 18.4678L55.5 17.9375ZM66.4062 0.5V-0.5H65.8522L65.5584 -0.0302721L66.4062 0.5ZM73.4688 0.5L74.3121 1.03733L75.2916 -0.5H73.4688V0.5ZM59.0938 23.0625L58.2504 22.5252L57.9068 23.0644L58.2521 23.6026L59.0938 23.0625ZM73.8125 46V47H75.6424L74.6541 45.4599L73.8125 46ZM66.6875 46L65.8415 46.5332L66.1357 47H66.6875V46ZM55.5 28.25L56.346 27.7168L55.5024 26.3783L54.6554 27.7147L55.5 28.25ZM44.25 46V47H44.8001L45.0946 46.5353L44.25 46ZM37.1562 46L36.3151 45.4591L35.3243 47H37.1562V46ZM51.9062 23.0625L52.7474 23.6034L53.0939 23.0644L52.7491 22.5243L51.9062 23.0625ZM37.5 0.5V-0.5H35.675L36.6572 1.03816L37.5 0.5ZM44.5312 0.5L45.3777 -0.0324511L45.0836 -0.5H44.5312V0.5ZM56.3478 18.4678L67.2541 1.03027L65.5584 -0.0302721L54.6522 17.4072L56.3478 18.4678ZM66.4062 1.5H73.4688V-0.5H66.4062V1.5ZM72.6254 -0.0373289L58.2504 22.5252L59.9371 23.5998L74.3121 1.03733L72.6254 -0.0373289ZM58.2521 23.6026L72.9709 46.5401L74.6541 45.4599L59.9354 22.5224L58.2521 23.6026ZM73.8125 45H66.6875V47H73.8125V45ZM67.5335 45.4668L56.346 27.7168L54.654 28.7832L65.8415 46.5332L67.5335 45.4668ZM54.6554 27.7147L43.4054 45.4647L45.0946 46.5353L56.3446 28.7853L54.6554 27.7147ZM44.25 45H37.1562V47H44.25V45ZM37.9974 46.5409L52.7474 23.6034L51.0651 22.5216L36.3151 45.4591L37.9974 46.5409ZM52.7491 22.5243L38.3428 -0.038159L36.6572 1.03816L51.0634 23.6007L52.7491 22.5243ZM37.5 1.5H44.5312V-0.5H37.5V1.5ZM43.6848 1.03245L54.6535 18.47L56.3465 17.405L45.3777 -0.0324511L43.6848 1.03245ZM106.5 24.9688V25.9688H107.5V24.9688H106.5ZM86.7812 24.9688V23.9688H85.7812V24.9688H86.7812ZM86.7812 41.0938H85.7812V42.0938H86.7812V41.0938ZM109.688 41.0938H110.688V40.0938H109.688V41.0938ZM109.688 46V47H110.688V46H109.688ZM80.7812 46H79.7812V47H80.7812V46ZM80.7812 0.5V-0.5H79.7812V0.5H80.7812ZM109.375 0.5H110.375V-0.5H109.375V0.5ZM109.375 5.4375V6.4375H110.375V5.4375H109.375ZM86.7812 5.4375V4.4375H85.7812V5.4375H86.7812ZM86.7812 20.0625H85.7812V21.0625H86.7812V20.0625ZM106.5 20.0625H107.5V19.0625H106.5V20.0625ZM106.5 23.9688H86.7812V25.9688H106.5V23.9688ZM85.7812 24.9688V41.0938H87.7812V24.9688H85.7812ZM86.7812 42.0938H109.688V40.0938H86.7812V42.0938ZM108.688 41.0938V46H110.688V41.0938H108.688ZM109.688 45H80.7812V47H109.688V45ZM81.7812 46V0.5H79.7812V46H81.7812ZM80.7812 1.5H109.375V-0.5H80.7812V1.5ZM108.375 0.5V5.4375H110.375V0.5H108.375ZM109.375 4.4375H86.7812V6.4375H109.375V4.4375ZM85.7812 5.4375V20.0625H87.7812V5.4375H85.7812ZM86.7812 21.0625H106.5V19.0625H86.7812V21.0625ZM105.5 20.0625V24.9688H107.5V20.0625H105.5Z" fill="white"/>
</g>
<defs>
<filter id="filter0_d_160_8" x="0.28125" y="0.5" width="113.406" height="53.5" filterUnits="userSpaceOnUse" color-interpolation-filters="sRGB">
<feFlood flood-opacity="0" result="BackgroundImageFix"/>
<feColorMatrix in="SourceAlpha" type="matrix" values="0 0 0 0 0 0 0 0 0 0 0 0 0 0 0 0 0 0 127 0" result="hardAlpha"/>
<feOffset dy="4"/>
<feGaussianBlur stdDeviation="2"/>
<feComposite in2="hardAlpha" operator="out"/>
<feColorMatrix type="matrix" values="0 0 0 0 0 0 0 0 0 0 0 0 0 0 0 0 0 0 0.25 0"/>
<feBlend mode="normal" in2="BackgroundImageFix" result="effect1_dropShadow_160_8"/>
<feBlend mode="normal" in="SourceGraphic" in2="effect1_dropShadow_160_8" result="shape"/>
</filter>
</defs>
</svg>
